# Blender v2.76 (sub 0) OBJ File: 'tree_unapplied.blend'
# www.blender.org
o Cylinder
v 0.000000 -0.000000 -0.250000
v 0.000000 1.378104 -0.250000
v 0.146946 -0.000000 -0.202254
v 0.146946 1.378104 -0.202254
v 0.237764 -0.000000 -0.077254
v 0.237764 1.378104 -0.077254
v 0.237764 -0.000000 0.077254
v 0.237764 1.378104 0.077254
v 0.146946 -0.000000 0.202254
v 0.146946 1.378104 0.202254
v -0.000000 -0.000000 0.250000
v -0.000000 1.378104 0.250000
v -0.146946 -0.000000 0.202254
v -0.146946 1.378104 0.202254
v -0.237764 -0.000000 0.077254
v -0.237764 1.378104 0.077254
v -0.237764 -0.000000 -0.077254
v -0.237764 1.378104 -0.077254
v -0.146946 -0.000000 -0.202254
v -0.146946 1.378104 -0.202254
vn 0.309000 0.000000 -0.951100
vn 0.809000 0.000000 -0.587800
vn 1.000000 0.000000 0.000000
vn 0.809000 0.000000 0.587800
vn 0.309000 0.000000 0.951100
vn -0.309000 0.000000 0.951100
vn -0.809000 0.000000 0.587800
vn -1.000000 0.000000 0.000000
vn 0.000000 1.000000 -0.000000
vn -0.309000 0.000000 -0.951100
vn -0.809000 0.000000 -0.587800
vn 0.000000 -1.000000 -0.000000
s off
f 2//1 4//1 3//1
f 4//2 6//2 5//2
f 6//3 8//3 7//3
f 8//4 10//4 9//4
f 10//5 12//5 11//5
f 12//6 14//6 13//6
f 14//7 16//7 15//7
f 16//8 18//8 17//8
f 18//9 8//9 6//9
f 20//10 2//10 1//10
f 18//11 20//11 19//11
f 7//12 15//12 19//12
f 1//1 2//1 3//1
f 3//2 4//2 5//2
f 5//3 6//3 7//3
f 7//4 8//4 9//4
f 9//5 10//5 11//5
f 11//6 12//6 13//6
f 13//7 14//7 15//7
f 15//8 16//8 17//8
f 6//9 4//9 18//9
f 2//9 20//9 18//9
f 18//9 16//9 14//9
f 14//9 12//9 18//9
f 10//9 8//9 18//9
f 4//9 2//9 18//9
f 18//9 12//9 10//9
f 19//10 20//10 1//10
f 17//11 18//11 19//11
f 19//12 1//12 3//12
f 3//12 5//12 7//12
f 7//12 9//12 11//12
f 11//12 13//12 15//12
f 15//12 17//12 19//12
f 19//12 3//12 7//12
f 7//12 11//12 15//12
