# Blender v2.76 (sub 0) OBJ File: 'tree_unapplied.blend'
# www.blender.org
o Cylinder.001_Cylinder.002
v 0.000000 1.083113 -0.827655
v 0.000000 1.763733 -0.262182
v 0.486483 1.083113 -0.669587
v 0.154107 1.763733 -0.212110
v 0.787147 1.083113 -0.255759
v 0.249350 1.763733 -0.081019
v 0.787147 1.083113 0.255759
v 0.249350 1.763733 0.081019
v 0.486483 1.083113 0.669587
v 0.154107 1.763733 0.212110
v -0.000000 1.083113 0.827655
v -0.000000 1.763733 0.262182
v -0.486483 1.083113 0.669587
v -0.154107 1.763733 0.212110
v -0.787147 1.083113 0.255760
v -0.249350 1.763733 0.081019
v -0.787147 1.083113 -0.255760
v -0.249350 1.763733 -0.081019
v -0.486483 1.083113 -0.669587
v -0.154107 1.763733 -0.212110
v 0.010000 1.649632 -0.606220
v 0.010000 2.148156 -0.192037
v 0.366327 1.649632 -0.490443
v 0.122876 2.148156 -0.155361
v 0.586550 1.649632 -0.187332
v 0.192638 2.148156 -0.059343
v 0.586550 1.649632 0.187332
v 0.192638 2.148156 0.059343
v 0.366327 1.649632 0.490443
v 0.122876 2.148156 0.155361
v 0.010000 1.649632 0.606220
v 0.010000 2.148156 0.192037
v -0.346328 1.649632 0.490443
v -0.102876 2.148156 0.155361
v -0.566550 1.649632 0.187332
v -0.172638 2.148156 0.059343
v -0.566550 1.649632 -0.187333
v -0.172638 2.148156 -0.059343
v -0.346327 1.649632 -0.490443
v -0.102876 2.148156 -0.155361
v 0.017325 2.064582 -0.444030
v 0.017325 2.429729 -0.140658
v 0.278319 2.064582 -0.359227
v 0.100001 2.429729 -0.113795
v 0.439622 2.064582 -0.137213
v 0.151099 2.429729 -0.043466
v 0.439622 2.064582 0.137213
v 0.151099 2.429729 0.043466
v 0.278319 2.064582 0.359228
v 0.100001 2.429729 0.113795
v 0.017325 2.064582 0.444030
v 0.017325 2.429729 0.140658
v -0.243670 2.064582 0.359227
v -0.065352 2.429729 0.113795
v -0.404973 2.064582 0.137213
v -0.116449 2.429729 0.043466
v -0.404973 2.064582 -0.137213
v -0.116449 2.429729 -0.043466
v -0.243669 2.064582 -0.359228
v -0.065352 2.429729 -0.113795
v 0.022689 2.368515 -0.325232
v 0.022689 2.635968 -0.103026
v 0.213856 2.368515 -0.263118
v 0.083247 2.635968 -0.083350
v 0.332003 2.368515 -0.100502
v 0.120673 2.635968 -0.031837
v 0.332003 2.368515 0.100502
v 0.120673 2.635968 0.031837
v 0.213856 2.368515 0.263118
v 0.083247 2.635968 0.083350
v 0.022689 2.368515 0.325232
v 0.022689 2.635968 0.103026
v -0.168477 2.368515 0.263118
v -0.037868 2.635968 0.083350
v -0.286624 2.368515 0.100502
v -0.075294 2.635968 0.031837
v -0.286624 2.368515 -0.100502
v -0.075294 2.635968 -0.031837
v -0.168477 2.368515 -0.263118
v -0.037868 2.635968 -0.083350
v 0.026619 2.591132 -0.238218
v 0.026619 2.787030 -0.075462
v 0.166640 2.591132 -0.192722
v 0.070974 2.787030 -0.061050
v 0.253178 2.591132 -0.073613
v 0.098388 2.787030 -0.023319
v 0.253178 2.591132 0.073613
v 0.098388 2.787030 0.023319
v 0.166640 2.591132 0.192722
v 0.070974 2.787030 0.061050
v 0.026619 2.591132 0.238218
v 0.026619 2.787030 0.075462
v -0.113402 2.591132 0.192722
v -0.017736 2.787030 0.061050
v -0.199940 2.591132 0.073613
v -0.045150 2.787030 0.023319
v -0.199940 2.591132 -0.073613
v -0.045150 2.787030 -0.023319
v -0.113402 2.591132 -0.192722
v -0.017736 2.787030 -0.061050
vn 0.242500 0.620000 -0.746200
vn 0.634800 0.620000 -0.461200
vn 0.784600 0.620000 -0.000000
vn 0.634800 0.620000 0.461200
vn 0.242500 0.620000 0.746200
vn -0.242500 0.620000 0.746200
vn -0.634800 0.620000 0.461200
vn -0.784600 0.620000 0.000000
vn 0.000000 1.000000 0.000000
vn -0.242500 0.620000 -0.746200
vn -0.634800 0.620000 -0.461200
vn 0.000000 -1.000000 0.000000
s off
f 2//1 4//1 3//1
f 4//2 6//2 5//2
f 6//3 8//3 7//3
f 8//4 10//4 9//4
f 10//5 12//5 11//5
f 12//6 14//6 13//6
f 13//7 14//7 16//7
f 16//8 18//8 17//8
f 18//9 10//9 6//9
f 20//10 2//10 1//10
f 17//11 18//11 20//11
f 7//12 17//12 19//12
f 22//1 24//1 23//1
f 23//2 24//2 26//2
f 26//3 28//3 27//3
f 28//4 30//4 29//4
f 30//5 32//5 31//5
f 31//6 32//6 34//6
f 34//7 36//7 35//7
f 36//8 38//8 37//8
f 38//9 30//9 26//9
f 40//10 22//10 21//10
f 37//11 38//11 40//11
f 27//12 35//12 39//12
f 41//1 42//1 44//1
f 43//2 44//2 46//2
f 46//3 48//3 47//3
f 48//4 50//4 49//4
f 50//5 52//5 51//5
f 52//6 54//6 53//6
f 53//7 54//7 56//7
f 56//8 58//8 57//8
f 54//9 50//9 46//9
f 60//10 42//10 41//10
f 58//11 60//11 59//11
f 47//12 55//12 59//12
f 62//1 64//1 63//1
f 64//2 66//2 65//2
f 66//3 68//3 67//3
f 67//4 68//4 70//4
f 70//5 72//5 71//5
f 72//6 74//6 73//6
f 74//7 76//7 75//7
f 76//8 78//8 77//8
f 78//9 70//9 66//9
f 80//10 62//10 61//10
f 77//11 78//11 80//11
f 67//12 75//12 79//12
f 82//1 84//1 83//1
f 84//2 86//2 85//2
f 85//3 86//3 88//3
f 87//4 88//4 90//4
f 90//5 92//5 91//5
f 92//6 94//6 93//6
f 94//7 96//7 95//7
f 95//8 96//8 98//8
f 94//9 90//9 86//9
f 100//10 82//10 81//10
f 97//11 98//11 100//11
f 91//12 95//12 99//12
f 1//1 2//1 3//1
f 3//2 4//2 5//2
f 5//3 6//3 7//3
f 7//4 8//4 9//4
f 9//5 10//5 11//5
f 11//6 12//6 13//6
f 15//7 13//7 16//7
f 15//8 16//8 17//8
f 6//9 4//9 2//9
f 2//9 20//9 18//9
f 18//9 16//9 14//9
f 14//9 12//9 10//9
f 10//9 8//9 6//9
f 6//9 2//9 18//9
f 18//9 14//9 10//9
f 19//10 20//10 1//10
f 19//11 17//11 20//11
f 19//12 1//12 3//12
f 3//12 5//12 7//12
f 7//12 9//12 11//12
f 11//12 13//12 7//12
f 15//12 17//12 7//12
f 19//12 3//12 7//12
f 7//12 13//12 15//12
f 21//1 22//1 23//1
f 25//2 23//2 26//2
f 25//3 26//3 27//3
f 27//4 28//4 29//4
f 29//5 30//5 31//5
f 33//6 31//6 34//6
f 33//7 34//7 35//7
f 35//8 36//8 37//8
f 26//9 24//9 22//9
f 22//9 40//9 38//9
f 38//9 36//9 34//9
f 34//9 32//9 30//9
f 30//9 28//9 26//9
f 26//9 22//9 38//9
f 38//9 34//9 30//9
f 39//10 40//10 21//10
f 39//11 37//11 40//11
f 39//12 21//12 27//12
f 23//12 25//12 27//12
f 27//12 29//12 35//12
f 31//12 33//12 35//12
f 35//12 37//12 39//12
f 21//12 23//12 27//12
f 29//12 31//12 35//12
f 43//1 41//1 44//1
f 45//2 43//2 46//2
f 45//3 46//3 47//3
f 47//4 48//4 49//4
f 49//5 50//5 51//5
f 51//6 52//6 53//6
f 55//7 53//7 56//7
f 55//8 56//8 57//8
f 46//9 44//9 42//9
f 42//9 60//9 58//9
f 58//9 56//9 54//9
f 54//9 52//9 50//9
f 50//9 48//9 46//9
f 46//9 42//9 58//9
f 58//9 54//9 46//9
f 59//10 60//10 41//10
f 57//11 58//11 59//11
f 59//12 41//12 43//12
f 43//12 45//12 59//12
f 47//12 49//12 51//12
f 51//12 53//12 55//12
f 55//12 57//12 59//12
f 59//12 45//12 47//12
f 47//12 51//12 55//12
f 61//1 62//1 63//1
f 63//2 64//2 65//2
f 65//3 66//3 67//3
f 69//4 67//4 70//4
f 69//5 70//5 71//5
f 71//6 72//6 73//6
f 73//7 74//7 75//7
f 75//8 76//8 77//8
f 66//9 64//9 62//9
f 62//9 80//9 78//9
f 78//9 76//9 74//9
f 74//9 72//9 78//9
f 70//9 68//9 66//9
f 66//9 62//9 78//9
f 78//9 72//9 70//9
f 79//10 80//10 61//10
f 79//11 77//11 80//11
f 79//12 61//12 63//12
f 63//12 65//12 67//12
f 67//12 69//12 71//12
f 71//12 73//12 67//12
f 75//12 77//12 79//12
f 79//12 63//12 67//12
f 67//12 73//12 75//12
f 81//1 82//1 83//1
f 83//2 84//2 85//2
f 87//3 85//3 88//3
f 89//4 87//4 90//4
f 89//5 90//5 91//5
f 91//6 92//6 93//6
f 93//7 94//7 95//7
f 97//8 95//8 98//8
f 86//9 84//9 82//9
f 82//9 100//9 98//9
f 98//9 96//9 94//9
f 94//9 92//9 90//9
f 90//9 88//9 86//9
f 86//9 82//9 98//9
f 98//9 94//9 86//9
f 99//10 100//10 81//10
f 99//11 97//11 100//11
f 99//12 81//12 83//12
f 83//12 85//12 99//12
f 87//12 89//12 91//12
f 91//12 93//12 95//12
f 95//12 97//12 99//12
f 99//12 85//12 87//12
f 87//12 91//12 99//12
